<svg xmlns="http://www.w3.org/2000/svg" width="24" height="24" viewBox="0 0 24 24" fill="white">
  <path d="M12.031 6.172c-3.181 0-5.767 2.586-5.768 5.766-.001 1.298.38 2.27 1.019 3.287l-.582 2.128 2.182-.573c.978.58 1.911.928 3.145.929 3.178 0 5.767-2.587 5.768-5.766.001-3.187-2.575-5.771-5.764-5.771zm3.392 8.244c-.144.405-.837.774-1.17.824-.299.045-.677.063-1.092-.069-.252-.08-.575-.187-.988-.365-1.739-.751-2.874-2.502-2.961-2.617-.087-.116-.708-.94-.708-1.793s.448-1.273.607-1.446c.159-.173.346-.217.462-.217s.231.001.332.005c.109.004.258-.041.404.314.159.386.541 1.32.588 1.417.047.097.078.21.014.339-.063.129-.096.21-.188.324l-.291.339c-.097.114-.199.239-.084.436.115.197.511.844 1.102 1.369.76.671 1.399.881 1.594.985.195.105.307.087.421-.044.115-.131.488-.567.618-.761.13-.194.26-.162.44-.098.18.065 1.144.539 1.341.637s.328.146.376.225c.047.079.047.458-.097.863zM12.002 2.003C6.441 2.003 2 6.448 2 12.008c0 2.133.663 4.108 1.791 5.733L2 22l4.385-1.153A9.956 9.956 0 0 0 12.002 22c5.561 0 10.001-4.441 10.001-10.002 0-5.56-4.44-10.001-10.001-10.001z"/>
</svg>
